<svg xmlns="http://www.w3.org/2000/svg" viewBox="0 0 256 256" width="30" height="30" fill="currentColor"><path fill-rule="evenodd" d="M48 32h160a16 16 0 0 1 16 16v160a16 16 0 0 1-16 16H48a16 16 0 0 1-16-16V48a16 16 0 0 1 16-16Zm0 16v160h160V48Z"/><path d="M136 48h72v160h-72z" opacity=".5"/><rect x="64" y="86" width="56" height="14" rx="7"/><rect x="64" y="112" width="56" height="9" rx="4.5" opacity=".55"/><rect x="64" y="130" width="38" height="9" rx="4.5" opacity=".55"/><rect x="64" y="158" width="50" height="22" rx="11"/></svg>
